<svg width="281.25" height="281.25" version="1.1" xmlns="http://www.w3.org/2000/svg">
<path fill="#fff" d="m58.854-2e-3c-32.503 0-58.854 26.35-58.854 58.854 0 32.505 26.35 58.856 58.854 58.856h27.606v45.832h-27.606c-32.503 0-58.854 26.351-58.854 58.856 0 32.504 26.35 58.854 58.854 58.854s58.856-26.349 58.856-58.854v-27.604h45.832v27.604c0 32.504 26.35 58.854 58.856 58.854 32.504 0 58.854-26.349 58.854-58.854 0-32.504-26.349-58.856-58.854-58.856h-27.604v-45.832h27.604c32.504 0 58.854-26.35 58.854-58.856 0-32.503-26.349-58.854-58.854-58.854s-58.856 26.35-58.856 58.854v27.606h-45.832v-27.606c0-32.503-26.351-58.854-58.856-58.854zm0 31.25c15.246 0 27.606 12.358 27.606 27.604v27.606h-27.606c-15.246 0-27.604-12.36-27.604-27.606s12.358-27.604 27.604-27.604zm163.54 0c15.246 0 27.604 12.358 27.604 27.604s-12.358 27.606-27.604 27.606h-27.604v-27.606c0-15.246 12.359-27.604 27.604-27.604zm-104.69 86.459h45.832v45.832h-45.832zm-58.856 77.084h27.606v27.604c0 11.164-6.7277 21.23-17.041 25.502-10.316 4.2741-22.189 1.9132-30.084-5.9824-7.8944-7.8934-10.255-19.771-5.9824-30.084 4.272-10.316 14.338-17.039 25.502-17.039zm135.94 0h27.604c15.246 0 27.604 12.359 27.604 27.604 0 15.244-12.358 27.604-27.604 27.604-15.244 0-27.604-12.359-27.604-27.604z"/>
</svg>
